<?xml version="1.0" standalone="no"?>
<!DOCTYPE svg PUBLIC "-//W3C//DTD SVG 20010904//EN"
 "http://www.w3.org/TR/2001/REC-SVG-20010904/DTD/svg10.dtd">
<svg version="1.0" xmlns="http://www.w3.org/2000/svg"
 width="128.000000pt" height="128.000000pt" viewBox="10 -139 128.000000 128.000000"
 preserveAspectRatio="xMidYMid meet">
<metadata>
Created by potrace 1.15, written by Peter Selinger 2001-2017
</metadata>
<g transform="scale(0.1175,-0.1175)"
fill="#000000" stroke="none">
<path d="M614 1173 c-79 -126 -93 -129 -230 -39 -54 36 -100 63 -102 62 -1 -2
7 -45 18 -95 17 -78 18 -97 8 -119 -18 -38 -72 -62 -140 -62 -63 0 -88 -7 -88
-23 0 -7 42 -51 92 -99 88 -82 92 -88 82 -115 -9 -28 -37 -47 -170 -119 l-58
-32 94 -44 c62 -29 105 -56 124 -78 27 -32 28 -38 24 -105 -3 -42 -19 -108
-39 -167 -18 -54 -30 -101 -25 -105 4 -4 63 21 131 56 141 73 147 73 264 17
l69 -33 70 34 c96 48 151 48 260 -1 58 -26 93 -36 120 -34 36 3 37 4 36 44 0
25 -18 83 -42 142 -23 55 -42 110 -42 120 0 22 18 32 60 32 69 0 79 34 27 96
-84 100 -86 117 -17 170 56 42 110 105 110 127 0 12 -21 16 -99 19 -121 5
-135 13 -128 78 3 25 11 71 18 102 7 32 10 60 6 64 -4 4 -45 -17 -93 -46 -91
-56 -129 -64 -151 -34 -8 11 -39 67 -70 127 -37 73 -60 107 -72 107 -9 0 -30
-21 -47 -47z m282 -358 c54 -41 46 -58 -26 -53 -33 2 -60 1 -60 -2 0 -3 9 -43
21 -88 17 -70 19 -91 10 -154 -13 -91 -37 -172 -55 -187 -18 -15 -168 -25
-226 -14 -39 7 -48 13 -64 46 -10 21 -25 79 -34 130 -15 89 -11 154 14 243 5
20 3 21 -43 17 -59 -6 -85 13 -55 40 19 18 122 48 135 40 5 -3 17 -25 27 -48
22 -52 43 -65 105 -65 61 0 80 12 106 63 12 23 26 48 32 55 16 20 72 8 113
-23z"/>
<path d="M500 576 c0 -60 13 -67 89 -50 23 5 23 6 -20 50 -56 57 -69 57 -69 0z"/>
<path d="M717 580 c-20 -24 -37 -47 -37 -52 0 -4 25 -8 55 -8 61 0 63 3 36 64
l-17 39 -37 -43z"/>
<path d="M630 483 c-43 -15 -65 -88 -35 -113 19 -16 92 -15 111 1 28 23 9 89
-33 108 -13 6 -25 11 -26 10 -1 0 -9 -3 -17 -6z m0 -47 c0 -8 3 -21 6 -30 4
-11 1 -16 -10 -16 -11 0 -16 9 -16 30 0 17 5 30 10 30 6 0 10 -6 10 -14z m50
-16 c0 -16 -4 -30 -10 -30 -5 0 -10 14 -10 30 0 17 5 30 10 30 6 0 10 -13 10
-30z"/>
</g>
</svg>
