<?xml version="1.0" standalone="no"?>
<!DOCTYPE svg PUBLIC "-//W3C//DTD SVG 20010904//EN"
 "http://www.w3.org/TR/2001/REC-SVG-20010904/DTD/svg10.dtd">
<svg version="1.0" xmlns="http://www.w3.org/2000/svg"
 width="128.000000pt" height="128.000000pt" viewBox="10 -139 128.000000 128.000000"
 preserveAspectRatio="xMidYMid meet">
<metadata>
Created by potrace 1.15, written by Peter Selinger 2001-2017
</metadata>
<g transform="scale(0.1175,-0.1175)"
fill="#000000" stroke="none">
<path d="M284 1070 c-76 -38 -174 -149 -174 -197 0 -31 9 -29 69 12 47 33 51
34 60 16 6 -10 15 -108 21 -217 18 -335 37 -409 116 -463 161 -111 475 -85
567 46 41 57 56 132 68 333 15 262 19 301 34 306 7 3 34 -9 61 -25 57 -36 64
-38 64 -11 0 27 -39 87 -86 131 -99 92 -146 103 -197 46 -42 -45 -75 -52 -252
-52 -165 1 -217 13 -261 61 -18 19 -36 34 -40 34 -5 0 -28 -9 -50 -20z m174
-484 c57 -29 95 -68 90 -93 -3 -15 -13 -18 -52 -17 -43 0 -53 5 -82 37 -23 25
-34 47 -34 67 0 37 14 38 78 6z m442 -6 c0 -69 -45 -110 -121 -110 -75 0 -62
61 23 109 71 41 98 41 98 1z m-215 -139 c54 -25 79 -55 79 -96 0 -101 -150
-164 -221 -93 -33 34 -41 97 -18 147 27 62 85 77 160 42z"/>
<path d="M570 341 c0 -45 3 -51 21 -51 18 0 20 5 17 47 -2 36 -7 49 -20 51
-15 3 -18 -4 -18 -47z"/>
<path d="M640 340 c0 -43 3 -50 20 -50 17 0 20 7 20 50 0 43 -3 50 -20 50 -17
0 -20 -7 -20 -50z"/>
</g>
</svg>
