<?xml version="1.0" standalone="no"?>
<!DOCTYPE svg PUBLIC "-//W3C//DTD SVG 20010904//EN"
 "http://www.w3.org/TR/2001/REC-SVG-20010904/DTD/svg10.dtd">
<svg version="1.0" xmlns="http://www.w3.org/2000/svg"
 width="128.000000pt" height="128.000000pt" viewBox="10 -139 128.000000 128.000000"
 preserveAspectRatio="xMidYMid meet">
<metadata>
Created by potrace 1.15, written by Peter Selinger 2001-2017
</metadata>
<g transform="scale(0.1175,-0.1175)"
fill="#000000" stroke="none">
<path d="M561 1068 c-139 -93 -284 -279 -404 -518 -83 -166 -84 -181 -7 -196
72 -14 151 -41 224 -75 33 -16 62 -26 64 -24 9 8 -70 96 -129 143 -39 32 -58
54 -58 70 -1 39 71 173 121 224 62 64 137 98 232 105 165 13 295 -67 376 -229
22 -44 40 -87 40 -95 0 -8 -46 -59 -102 -113 -56 -55 -99 -102 -96 -105 3 -3
39 9 79 28 76 35 148 60 207 72 47 10 56 34 37 102 -56 191 -292 518 -449 621
-27 17 -55 32 -61 32 -7 0 -40 -19 -74 -42z"/>
<path d="M370 612 c0 -67 147 -131 205 -88 31 23 10 42 -80 75 -99 36 -125 39
-125 13z"/>
<path d="M767 599 c-43 -17 -81 -37 -84 -45 -18 -46 81 -60 157 -21 40 19 45
26 48 60 3 33 1 37 -20 37 -13 -1 -58 -15 -101 -31z"/>
</g>
</svg>
